<svg
  width="30"
  height="24"
  viewBox="0 0 30 24"
  fill="none"
  xmlns="http://www.w3.org/2000/svg"
>
  <g opacity="0.5">
    <path
      d="M19.2 7.19999C18.8 6.79999 18.2 6.79999 17.8 7.19999L10.3 14.7L7.2 11.6C6.8 11.2 6.2 11.2 5.8 11.6C5.4 12 5.4 12.6 5.8 13L9.6 16.8C9.8 17 10 17.1 10.3 17.1C10.6 17.1 10.8 17 11 16.8L19.2 8.59999C19.6 8.19999 19.6 7.59999 19.2 7.19999Z"
      fill="currentColor"
    />
  </g>
  <path
    d="M24.2 7.19999C23.8 6.79999 23.2 6.79999 22.8 7.19999L15.3 14.7L12.2 11.6C11.8 11.2 11.2 11.2 10.8 11.6C10.4 12 10.4 12.6 10.8 13L14.6 16.8C14.8 17 15 17.1 15.3 17.1C15.6 17.1 15.8 17 16 16.8L24.2 8.59999C24.6 8.19999 24.6 7.59999 24.2 7.19999Z"
    fill="currentColor"
  />
</svg>
