<svg
  width="24"
  height="24"
  viewBox="0 0 24 24"
  fill="none"
  xmlns="http://www.w3.org/2000/svg"
>
  <path
    d="M22.7 17.5L14.6 3.5C13.8 2.1 11.9 1.6 10.5 2.4C10 2.7 9.60001 3.1 9.40001 3.5L1.30001 17.5C0.500011 18.9 1.00001 20.8 2.40001 21.6C2.90001 21.9 3.40001 22 3.90001 22H20C21.7 22 23 20.6 23 19C23.1 18.4 22.9 17.9 22.7 17.5ZM12 18C11.4 18 11 17.6 11 17C11 16.4 11.4 16 12 16C12.6 16 13 16.4 13 17C13 17.6 12.6 18 12 18ZM13 13C13 13.6 12.6 14 12 14C11.4 14 11 13.6 11 13V9C11 8.4 11.4 8 12 8C12.6 8 13 8.4 13 9V13Z"
    fill="currentColor"
  />
</svg>
