<svg width="512" height="512" viewBox="0 0 512 512" fill="none" xmlns="http://www.w3.org/2000/svg">
<rect width="512" height="512" rx="85.3333" fill="#111827"/>
<path fill-rule="evenodd" clip-rule="evenodd" d="M192 106.667H370.205C379.519 106.667 384.359 117.766 378.022 124.591L259.165 252.591C257.147 254.765 254.314 256 251.348 256H192C150.762 256 117.333 222.571 117.333 181.333C117.333 140.096 150.762 106.667 192 106.667Z" fill="#E75590"/>
<path fill-rule="evenodd" clip-rule="evenodd" d="M320 256H260.652C257.686 256 254.853 257.235 252.835 259.409L133.978 387.409C127.641 394.234 132.481 405.333 141.795 405.333H320C361.238 405.333 394.667 371.904 394.667 330.667C394.667 289.429 361.238 256 320 256Z" fill="#448CFD"/>
</svg>
