<?xml version="1.0" standalone="no"?>
<!DOCTYPE svg PUBLIC "-//W3C//DTD SVG 20010904//EN"
 "http://www.w3.org/TR/2001/REC-SVG-20010904/DTD/svg10.dtd">
<svg version="1.0" xmlns="http://www.w3.org/2000/svg"
 width="700.000000pt" height="700.000000pt" viewBox="0 0 700.000000 700.000000"
 preserveAspectRatio="xMidYMid meet">
<metadata>
Created by potrace 1.11, written by Peter Selinger 2001-2013
</metadata>
<g transform="translate(0.000000,700.000000) scale(0.100000,-0.100000)"
fill="#000000" stroke="none">
<path d="M590 6993 c-165 -12 -291 -66 -395 -168 -118 -115 -165 -213 -184
-385 -6 -52 -9 -1214 -7 -2990 2 -2727 3 -2910 19 -2980 28 -119 71 -194 162
-285 111 -111 225 -163 385 -176 71 -5 5776 -5 5854 0 61 5 171 29 219 49 29
12 128 79 162 109 76 69 145 189 172 303 16 71 17 241 20 2995 1 1751 -2 2942
-7 2975 -6 30 -12 72 -16 94 -29 195 -239 407 -434 440 -19 3 -46 9 -60 13
-24 7 -5797 13 -5890 6z"/>
</g>
</svg>
